<?xml version="1.0" encoding="UTF-8"?>
<svg width="400px" height="400px" viewBox="0 0 400 400" version="1.1" xmlns="http://www.w3.org/2000/svg" xmlns:xlink="http://www.w3.org/1999/xlink">
    <!-- Generator: Sketch 48.2 (47327) - http://www.bohemiancoding.com/sketch -->
    <title>PowerDisplay</title>
    <desc>Created with Sketch.</desc>
    <defs>
        <radialGradient cx="14.5794046%" cy="14.6366514%" fx="14.5794046%" fy="14.6366514%" r="50.0518231%" gradientTransform="translate(0.145794,0.146367),rotate(44.953662),scale(1.000000,1.015499),translate(-0.145794,-0.146367)" id="radialGradient-1">
            <stop stop-color="#ADE8F0" stop-opacity="0.8" offset="0%"></stop>
            <stop stop-color="#FFFFFF" stop-opacity="0" offset="100%"></stop>
        </radialGradient>
    </defs>
    <g id="Page-1" stroke="none" stroke-width="1" fill="none" fill-rule="evenodd">
        <g id="PowerDisplay">
            <circle id="frame" fill="#707374" cx="200" cy="200" r="200"></circle>
            <circle id="ring" stroke="#484B4B" stroke-width="12" cx="200.5" cy="200.5" r="183.5"></circle>
            <circle id="display" fill="#FFFFFF" cx="200" cy="200" r="165"></circle>
            <path d="M200,50 L200,70.0429168 M251.481371,59.0957368 L244.62629,77.9299178 M296.753328,85.285867 L283.86999,100.639632 M330.355407,125.411474 L312.997732,135.432933 M348.234699,174.632819 L328.496279,178.113235 M348.234699,227.013079 L328.496279,223.532663 M51.7653008,227.013079 L71.5037206,223.532663 M51.7653008,174.632819 L71.5037206,178.113235 M69.6445932,125.411474 L87.0022683,135.432933 M103.246672,85.285867 L116.13001,100.639632 M148.518629,59.0957368 L155.37371,77.9299178" id="ticks" stroke="#CBCBCB" stroke-width="5" stroke-linecap="round"></path>
            <path d="M292.93025,220 C294.286473,213.608516 295,206.795623 295,200 C295,147.532949 252.467051,105 200,105 C147.532949,105 105,147.532949 105,200 C105,206.523303 105.657487,213.846479 106.909808,220" id="green-dp" stroke="#00FF00" stroke-width="60"></path>
            <path d="M292.93025,220 C294.286473,213.608516 295,206.795623 295,200 C295,147.532949 252.467051,105 200,105 C147.532949,105 105,147.532949 105,200 C105,206.523303 105.657487,213.846479 106.909808,220" id="lightgreen-dp" stroke="#C8FF00" stroke-width="60" stroke-dasharray="269,400"></path>
            <path d="M292.93025,220 C294.286473,213.608516 295,206.795623 295,200 C295,147.532949 252.467051,105 200,105 C147.532949,105 105,147.532949 105,200 C105,206.523303 105.657487,213.846479 106.909808,220" id="yellow-dp" stroke="#FFFF00" stroke-width="60" stroke-dasharray="202,400"></path>
            <path d="M292.93025,220 C294.286473,213.608516 295,206.795623 295,200 C295,147.532949 252.467051,105 200,105 C147.532949,105 105,147.532949 105,200 C105,206.523303 105.657487,213.846479 106.909808,220" id="orange-dp" stroke="#FF9600" stroke-width="60" stroke-dasharray="136,400"></path>
            <path d="M292.93025,220 C294.286473,213.608516 295,206.795623 295,200 C295,147.532949 252.467051,105 200,105 C147.532949,105 105,147.532949 105,200 C105,206.523303 105.657487,213.846479 106.909808,220" id="red-dp" stroke="#FF0000" stroke-width="60" stroke-dasharray="69,400"></path>
            <circle id="hub-below" fill="#7D7D7D" cx="200.5" cy="200.5" r="27.5"></circle>
            <path d="M200,213.5 L200,80" id="pointer" stroke="#000000" stroke-width="9" stroke-linecap="round"></path>
            <circle id="hub-above" fill="#DDDDDD" cx="200" cy="200" r="5"></circle>
            <circle id="glass" fill="url(#radialGradient-1)" transform="translate(200.145229, 200.145229) rotate(260.000000) translate(-200.145229, -200.145229) " cx="200.145229" cy="200.145229" r="165"></circle>
            <path d="M197.67125,11.0208856 C94.3238983,12.5404995 11.01375,96.7911859 11.01375,200.5 C11.01375,304.208814 94.3238983,388.459501 197.67125,389.979114 C196.725412,389.993022 195.777896,390 194.82875,390 C90.1707899,390 5.32875,305.15796 5.32875,200.5 C5.32875,95.8420399 90.1707899,11 194.82875,11 C195.777896,11 196.725412,11.006978 197.67125,11.0208856 Z" id="shine_left" fill="#FFFFFF" opacity="0.200000003"></path>
            <path d="M378.135003,23.019563 C281.332075,24.4429481 203.297503,103.358499 203.297503,200.5 C203.297503,297.641501 281.332075,376.557052 378.135003,377.980437 C377.24906,377.993464 376.361545,378 375.472503,378 C277.44196,378 197.972503,298.530543 197.972503,200.5 C197.972503,102.469457 277.44196,23 375.472503,23 C376.361545,23 377.24906,23.0065361 378.135003,23.019563 Z" id="shine_right" fill="#FFFFFF" opacity="0.200000003" transform="translate(288.053753, 200.500000) rotate(180.000000) translate(-288.053753, -200.500000) "></path>
        </g>
    </g>
</svg>